# Blender v2.80 (sub 75) OBJ File: ''
# www.blender.org
mtllib abdo.mtl
o male.002
v 0.054780 1.111650 0.061350
v -0.054780 1.111650 0.061350
v -0.053090 1.041470 0.062860
v 0.000000 1.036210 0.066070
v -0.054580 0.979930 0.057840
v 0.053160 1.041430 0.063110
v 0.054580 0.979930 0.057840
v 0.047130 0.925540 0.052680
v 0.000000 0.917640 0.056250
v -0.047130 0.925540 0.052680
vt -1.942140 40.942501
vt 0.151835 40.735298
vt -2.012030 43.706001
vt -1.916450 41.080601
vt -1.988460 38.650101
vt 0.177458 40.872898
vt -0.138552 40.722301
vt 1.957600 40.927898
vt 2.024980 43.693199
vt 1.999110 38.646198
vt 1.930080 41.076000
vt -0.166008 40.869701
vt -0.206827 36.156700
vt 1.653700 36.469501
vt 1.926750 38.623100
vt -1.926750 38.623100
vt -1.653700 36.469501
vt 0.206827 36.156700
vt -1.995660 38.647499
vt 0.144498 36.186798
vt 0.169724 40.870800
vt -0.144498 36.186798
vt 1.995660 38.647499
vt -0.169724 40.870800
vt 0.000000 40.553600
vt 2.156690 43.529499
vt -2.156690 43.529499
vn -0.0584 0.0201 0.9981
vn -0.0680 -0.0795 0.9945
vn -0.0676 -0.0799 0.9945
vn -0.0652 -0.0822 0.9945
vn 0.0532 0.0238 0.9983
vn 0.0638 -0.0835 0.9945
vn 0.0636 -0.0837 0.9945
vn 0.0643 -0.0831 0.9945
vn 0.0929 -0.1066 0.9900
vn -0.0929 -0.1066 0.9900
vn -0.0650 -0.0824 0.9945
vn 0.0650 -0.0824 0.9945
vn 0.0000 0.0624 0.9980
usemtl Color_M05
s 1
f 3/1/1 4/2/1 2/3/1
f 3/4/2 5/5/3 4/6/4
f 4/7/5 6/8/5 1/9/5
f 7/10/6 6/11/7 4/12/8
f 9/13/9 8/14/9 7/15/9
f 5/16/10 10/17/10 9/18/10
f 5/19/3 9/20/11 4/21/4
f 9/22/12 7/23/6 4/24/8
f 4/25/13 1/26/13 2/27/13
